<svg width="641" height="169" viewBox="0 0 641 169" fill="none" xmlns="http://www.w3.org/2000/svg">
<g clip-path="url(#clip0_142_4432)">
<path d="M199.383 38.5664V92.3122C199.383 117.667 242.067 115.082 242.067 92.3122V39.378H262.598V129.3C262.598 141.083 256.195 150.837 251.912 155.481C235.77 173.006 209.679 169.594 189.253 161.373C187.916 160.832 187.059 159.524 187.059 158.082V139.61C199.699 145.682 217.058 153.798 231.006 147.065C242.067 141.729 242.879 133.508 242.879 115.713C238.641 127.061 226.241 132.08 214.533 131.314C199.549 130.352 178.853 117.787 178.853 93.244V38.5664H199.383Z" fill="#101C32"/>
<path d="M299.496 0V50.0635L306.124 43.1499C325.632 26.3018 360.215 41.3914 360.215 68.5198V128.022H341.353H341.338C341.353 127.18 342.555 74.2461 337.911 65.3937C329.705 49.793 305.958 55.0082 300.743 69.7973C298.744 75.4485 298.338 128.037 298.263 128.037H278.98V0H299.511H299.496Z" fill="#101C32"/>
<path d="M110.782 1.6377C110.782 1.6377 110.752 1.6377 110.752 1.66775V74.6964C113.442 75.0421 115.201 72.3669 116.914 70.5934C126.458 60.8091 135.401 48.9959 144.569 38.7607L170.66 39.407L135.912 78.529C134.739 79.8516 134.694 81.8355 135.821 83.2032L168.33 122.971C170.254 125.331 168.586 128.848 165.535 128.848H147.289L117.2 92.266C115.772 90.5376 112.796 90.237 110.842 93.0926C110.812 93.1377 110.797 93.1978 110.797 93.258V128.848H91.0933V1.6377H110.797H110.782Z" fill="#101C32"/>
<path d="M577.932 1.6377V72.6224C579.119 74.1854 580.788 74.0502 581.614 73.0883L611.568 38.9862L637.013 39.407L603.001 79.2354C601.859 80.573 601.844 82.5269 602.971 83.8795L635.39 122.941C636.472 124.249 640.38 128.848 640.38 128.848H616.152C615.07 128.848 614.048 128.367 613.372 127.54L584.335 92.266C582.922 90.5526 579.991 90.237 577.977 93.0025C577.947 93.0325 577.932 93.0776 577.932 93.1227V128.848H558.228V1.6377H577.932Z" fill="#101C32"/>
<path d="M19.2832 100.954C19.2832 100.954 19.2681 100.954 19.2681 100.969C19.3884 101.284 20.8011 105.192 21.9734 107.281C27.9101 118.012 56.1357 117.772 57.8941 105.102C58.9312 97.6022 52.7991 95.4079 46.9376 93.7997C29.864 89.1105 2.9911 91.1395 2.54021 65.9649C1.86388 27.3239 75.118 24.8891 76.3053 64.8227H59.1265C59.1265 64.8227 59.0364 64.7926 59.0063 64.7626C53.4454 55.2489 45.1941 51.0706 34.1173 52.6037C22.3642 54.2118 17.8704 66.7916 31.1866 71.8114C47.3133 77.8684 76.0799 74.8624 78.6951 98.1733C83.5045 141.323 -0.240261 142.541 0.000211738 100.954H19.2832Z" fill="#101C32"/>
<path d="M497.117 132.154C469.267 132.154 446.617 109.505 446.617 81.655V80.3024C446.617 65.2127 435.841 55.4585 419.173 55.4585C402.505 55.4585 390.256 68.429 390.256 84.3754C390.256 100.322 403.227 113.292 419.173 113.292C424.358 113.292 429.453 111.91 433.887 109.279L443.491 125.511C436.142 129.855 427.74 132.154 419.173 132.154C392.826 132.154 371.394 110.722 371.394 84.3754C371.394 58.0285 392.826 36.5964 419.173 36.5964C445.52 36.5964 465.479 54.5717 465.479 80.3024V81.655C465.479 99.1044 479.667 113.292 497.117 113.292C514.566 113.292 528.754 99.1044 528.754 81.655C528.754 64.2057 514.566 50.0178 497.117 50.0178C491.435 50.0178 485.874 51.5358 481.02 54.4064L471.401 38.1745C479.156 33.5754 488.054 31.1406 497.102 31.1406C524.951 31.1406 547.601 53.7902 547.601 81.64C547.601 109.49 524.951 132.139 497.102 132.139L497.117 132.154Z" fill="#2D7AFF"/>
</g>
<defs>
<clipPath id="clip0_142_4432">
<rect width="640.38" height="168.106" fill="white"/>
</clipPath>
</defs>
</svg>
